<svg width="232" height="35" viewBox="0 0 232 35" fill="none" xmlns="http://www.w3.org/2000/svg">
<path d="M25.2117 21.2348C28.3425 20.4623 30.4539 18.1819 30.4539 15.2393C30.4539 11.3773 27.2139 8.72897 22.5905 8.72897H11.6243V19.4692H4.36856V0.523809H0V14.8064C0 19.4947 3.76089 23.2945 8.40108 23.2945H15.3544C14.3238 23.2945 13.3913 23.7161 12.7164 24.398C12.0416 25.0799 11.6243 26.022 11.6243 27.0633V34.4762H22.8089C27.6508 34.4762 31 31.6072 31 27.4877C31 24.2141 28.7429 21.7865 25.2117 21.2348ZM15.9565 12.6646H22.7725C24.7384 12.6646 26.1218 14.0255 26.1218 15.9382C26.1218 17.998 24.6292 19.4692 22.4449 19.4692H15.9565V12.6646ZM23.0274 30.5038H15.9565V23.2945H22.6269C24.9568 23.2945 26.5586 24.7658 26.5586 26.8624C26.5586 28.9589 25.2117 30.5038 23.0274 30.5038Z" fill="#F2EDE8"/>
<path d="M47.347 23.884H52.752V26H44.725V10.015H47.347V23.884ZM55.3587 11.648C54.8834 11.648 54.4847 11.487 54.1627 11.165C53.8407 10.843 53.6797 10.4443 53.6797 9.969C53.6797 9.49367 53.8407 9.095 54.1627 8.773C54.4847 8.451 54.8834 8.29 55.3587 8.29C55.8187 8.29 56.2097 8.451 56.5317 8.773C56.8537 9.095 57.0147 9.49367 57.0147 9.969C57.0147 10.4443 56.8537 10.843 56.5317 11.165C56.2097 11.487 55.8187 11.648 55.3587 11.648ZM56.6467 13.327V26H54.0247V13.327H56.6467ZM65.5632 13.12C66.5598 13.12 67.4492 13.327 68.2312 13.741C69.0285 14.155 69.6495 14.7683 70.0942 15.581C70.5388 16.3937 70.7612 17.375 70.7612 18.525V26H68.1622V18.916C68.1622 17.7813 67.8785 16.915 67.3112 16.317C66.7438 15.7037 65.9695 15.397 64.9882 15.397C64.0068 15.397 63.2248 15.7037 62.6422 16.317C62.0748 16.915 61.7912 17.7813 61.7912 18.916V26H59.1692V13.327H61.7912V14.776C62.2205 14.2547 62.7648 13.8483 63.4242 13.557C64.0988 13.2657 64.8118 13.12 65.5632 13.12ZM72.3117 19.606C72.3117 18.3333 72.5724 17.2063 73.0937 16.225C73.6304 15.2437 74.351 14.4847 75.2557 13.948C76.1757 13.396 77.1954 13.12 78.3147 13.12C79.1427 13.12 79.9554 13.304 80.7527 13.672C81.5654 14.0247 82.2094 14.5 82.6847 15.098V8.98H85.3297V26H82.6847V24.091C82.2554 24.7043 81.6574 25.2103 80.8907 25.609C80.1394 26.0077 79.273 26.207 78.2917 26.207C77.1877 26.207 76.1757 25.931 75.2557 25.379C74.351 24.8117 73.6304 24.0297 73.0937 23.033C72.5724 22.021 72.3117 20.8787 72.3117 19.606ZM82.6847 19.652C82.6847 18.778 82.5007 18.019 82.1327 17.375C81.78 16.731 81.3124 16.2403 80.7297 15.903C80.147 15.5657 79.5184 15.397 78.8437 15.397C78.169 15.397 77.5404 15.5657 76.9577 15.903C76.375 16.225 75.8997 16.708 75.5317 17.352C75.179 17.9807 75.0027 18.732 75.0027 19.606C75.0027 20.48 75.179 21.2467 75.5317 21.906C75.8997 22.5653 76.375 23.0713 76.9577 23.424C77.5557 23.7613 78.1844 23.93 78.8437 23.93C79.5184 23.93 80.147 23.7613 80.7297 23.424C81.3124 23.0867 81.78 22.596 82.1327 21.952C82.5007 21.2927 82.6847 20.526 82.6847 19.652ZM86.9796 19.606C86.9796 18.3333 87.2403 17.2063 87.7616 16.225C88.2983 15.2437 89.0189 14.4847 89.9236 13.948C90.8436 13.396 91.8556 13.12 92.9596 13.12C93.9563 13.12 94.8226 13.3193 95.5586 13.718C96.3099 14.1013 96.9079 14.5843 97.3526 15.167V13.327H99.9976V26H97.3526V24.114C96.9079 24.712 96.3023 25.2103 95.5356 25.609C94.7689 26.0077 93.8949 26.207 92.9136 26.207C91.8249 26.207 90.8283 25.931 89.9236 25.379C89.0189 24.8117 88.2983 24.0297 87.7616 23.033C87.2403 22.021 86.9796 20.8787 86.9796 19.606ZM97.3526 19.652C97.3526 18.778 97.1686 18.019 96.8006 17.375C96.4479 16.731 95.9803 16.2403 95.3976 15.903C94.8149 15.5657 94.1863 15.397 93.5116 15.397C92.8369 15.397 92.2083 15.5657 91.6256 15.903C91.0429 16.225 90.5676 16.708 90.1996 17.352C89.8469 17.9807 89.6706 18.732 89.6706 19.606C89.6706 20.48 89.8469 21.2467 90.1996 21.906C90.5676 22.5653 91.0429 23.0713 91.6256 23.424C92.2236 23.7613 92.8523 23.93 93.5116 23.93C94.1863 23.93 94.8149 23.7613 95.3976 23.424C95.9803 23.0867 96.4479 22.596 96.8006 21.952C97.1686 21.2927 97.3526 20.526 97.3526 19.652ZM116.132 17.789C116.991 17.9423 117.719 18.3947 118.317 19.146C118.915 19.8973 119.214 20.7483 119.214 21.699C119.214 22.5117 118.999 23.2477 118.57 23.907C118.156 24.551 117.55 25.0647 116.753 25.448C115.956 25.816 115.028 26 113.97 26H107.576V10.015H113.671C114.76 10.015 115.695 10.199 116.477 10.567C117.259 10.935 117.849 11.4333 118.248 12.062C118.647 12.6753 118.846 13.3653 118.846 14.132C118.846 15.052 118.601 15.8187 118.11 16.432C117.619 17.0453 116.96 17.4977 116.132 17.789ZM110.198 16.731H113.441C114.3 16.731 114.967 16.5393 115.442 16.156C115.933 15.7573 116.178 15.19 116.178 14.454C116.178 13.7333 115.933 13.1737 115.442 12.775C114.967 12.361 114.3 12.154 113.441 12.154H110.198V16.731ZM113.74 23.861C114.629 23.861 115.327 23.6463 115.833 23.217C116.339 22.7877 116.592 22.1897 116.592 21.423C116.592 20.641 116.324 20.02 115.787 19.56C115.25 19.1 114.537 18.87 113.648 18.87H110.198V23.861H113.74ZM132.758 19.353C132.758 19.8283 132.728 20.2577 132.666 20.641H122.983C123.06 21.653 123.436 22.4657 124.11 23.079C124.785 23.6923 125.613 23.999 126.594 23.999C128.005 23.999 129.002 23.4087 129.584 22.228H132.413C132.03 23.3933 131.332 24.3517 130.32 25.103C129.324 25.839 128.082 26.207 126.594 26.207C125.383 26.207 124.294 25.9387 123.328 25.402C122.378 24.85 121.626 24.0833 121.074 23.102C120.538 22.1053 120.269 20.9553 120.269 19.652C120.269 18.3487 120.53 17.2063 121.051 16.225C121.588 15.2283 122.332 14.4617 123.282 13.925C124.248 13.3883 125.352 13.12 126.594 13.12C127.79 13.12 128.856 13.3807 129.791 13.902C130.727 14.4233 131.455 15.1593 131.976 16.11C132.498 17.0453 132.758 18.1263 132.758 19.353ZM130.021 18.525C130.006 17.559 129.661 16.7847 128.986 16.202C128.312 15.6193 127.476 15.328 126.479 15.328C125.575 15.328 124.8 15.6193 124.156 16.202C123.512 16.7693 123.129 17.5437 123.006 18.525H130.021ZM140.813 13.12C141.809 13.12 142.699 13.327 143.481 13.741C144.278 14.155 144.899 14.7683 145.344 15.581C145.788 16.3937 146.011 17.375 146.011 18.525V26H143.412V18.916C143.412 17.7813 143.128 16.915 142.561 16.317C141.993 15.7037 141.219 15.397 140.238 15.397C139.256 15.397 138.474 15.7037 137.892 16.317C137.324 16.915 137.041 17.7813 137.041 18.916V26H134.419V13.327H137.041V14.776C137.47 14.2547 138.014 13.8483 138.674 13.557C139.348 13.2657 140.061 13.12 140.813 13.12ZM153.541 13.12C154.523 13.12 155.389 13.3193 156.14 13.718C156.907 14.1013 157.505 14.5843 157.934 15.167V13.327H160.579V26.207C160.579 27.3723 160.334 28.4073 159.843 29.312C159.353 30.232 158.64 30.9527 157.704 31.474C156.784 31.9953 155.68 32.256 154.392 32.256C152.675 32.256 151.249 31.8497 150.114 31.037C148.98 30.2397 148.336 29.151 148.182 27.771H150.781C150.981 28.4303 151.402 28.9593 152.046 29.358C152.706 29.772 153.488 29.979 154.392 29.979C155.45 29.979 156.301 29.657 156.945 29.013C157.605 28.369 157.934 27.4337 157.934 26.207V24.091C157.49 24.689 156.884 25.195 156.117 25.609C155.366 26.0077 154.507 26.207 153.541 26.207C152.437 26.207 151.425 25.931 150.505 25.379C149.601 24.8117 148.88 24.0297 148.343 23.033C147.822 22.021 147.561 20.8787 147.561 19.606C147.561 18.3333 147.822 17.2063 148.343 16.225C148.88 15.2437 149.601 14.4847 150.505 13.948C151.425 13.396 152.437 13.12 153.541 13.12ZM157.934 19.652C157.934 18.778 157.75 18.019 157.382 17.375C157.03 16.731 156.562 16.2403 155.979 15.903C155.397 15.5657 154.768 15.397 154.093 15.397C153.419 15.397 152.79 15.5657 152.207 15.903C151.625 16.225 151.149 16.708 150.781 17.352C150.429 17.9807 150.252 18.732 150.252 19.606C150.252 20.48 150.429 21.2467 150.781 21.906C151.149 22.5653 151.625 23.0713 152.207 23.424C152.805 23.7613 153.434 23.93 154.093 23.93C154.768 23.93 155.397 23.7613 155.979 23.424C156.562 23.0867 157.03 22.596 157.382 21.952C157.75 21.2927 157.934 20.526 157.934 19.652ZM166.162 15.466V22.481C166.162 22.9563 166.269 23.3013 166.484 23.516C166.714 23.7153 167.097 23.815 167.634 23.815H169.244V26H167.174C165.993 26 165.089 25.724 164.46 25.172C163.831 24.62 163.517 23.723 163.517 22.481V15.466H162.022V13.327H163.517V10.176H166.162V13.327H169.244V15.466H166.162ZM175.341 26.207C174.344 26.207 173.447 26.0307 172.65 25.678C171.868 25.31 171.247 24.8193 170.787 24.206C170.327 23.5773 170.081 22.8797 170.051 22.113H172.765C172.811 22.6497 173.064 23.102 173.524 23.47C173.999 23.8227 174.589 23.999 175.295 23.999C176.031 23.999 176.598 23.861 176.997 23.585C177.411 23.2937 177.618 22.9257 177.618 22.481C177.618 22.0057 177.388 21.653 176.928 21.423C176.483 21.193 175.77 20.94 174.789 20.664C173.838 20.4033 173.064 20.1503 172.466 19.905C171.868 19.6597 171.346 19.284 170.902 18.778C170.472 18.272 170.258 17.605 170.258 16.777C170.258 16.1023 170.457 15.489 170.856 14.937C171.254 14.3697 171.822 13.925 172.558 13.603C173.309 13.281 174.168 13.12 175.134 13.12C176.575 13.12 177.733 13.488 178.607 14.224C179.496 14.9447 179.971 15.9337 180.033 17.191H177.411C177.365 16.6237 177.135 16.1713 176.721 15.834C176.307 15.4967 175.747 15.328 175.042 15.328C174.352 15.328 173.823 15.4583 173.455 15.719C173.087 15.9797 172.903 16.3247 172.903 16.754C172.903 17.0913 173.025 17.375 173.271 17.605C173.516 17.835 173.815 18.019 174.168 18.157C174.52 18.2797 175.042 18.4407 175.732 18.64C176.652 18.8853 177.403 19.1383 177.986 19.399C178.584 19.6443 179.097 20.0123 179.527 20.503C179.956 20.9937 180.178 21.6453 180.194 22.458C180.194 23.1787 179.994 23.8227 179.596 24.39C179.197 24.9573 178.63 25.402 177.894 25.724C177.173 26.046 176.322 26.207 175.341 26.207ZM186.707 26.207C185.71 26.207 184.813 26.0307 184.016 25.678C183.234 25.31 182.613 24.8193 182.153 24.206C181.693 23.5773 181.448 22.8797 181.417 22.113H184.131C184.177 22.6497 184.43 23.102 184.89 23.47C185.365 23.8227 185.956 23.999 186.661 23.999C187.397 23.999 187.964 23.861 188.363 23.585C188.777 23.2937 188.984 22.9257 188.984 22.481C188.984 22.0057 188.754 21.653 188.294 21.423C187.849 21.193 187.136 20.94 186.155 20.664C185.204 20.4033 184.43 20.1503 183.832 19.905C183.234 19.6597 182.713 19.284 182.268 18.778C181.839 18.272 181.624 17.605 181.624 16.777C181.624 16.1023 181.823 15.489 182.222 14.937C182.621 14.3697 183.188 13.925 183.924 13.603C184.675 13.281 185.534 13.12 186.5 13.12C187.941 13.12 189.099 13.488 189.973 14.224C190.862 14.9447 191.338 15.9337 191.399 17.191H188.777C188.731 16.6237 188.501 16.1713 188.087 15.834C187.673 15.4967 187.113 15.328 186.408 15.328C185.718 15.328 185.189 15.4583 184.821 15.719C184.453 15.9797 184.269 16.3247 184.269 16.754C184.269 17.0913 184.392 17.375 184.637 17.605C184.882 17.835 185.181 18.019 185.534 18.157C185.887 18.2797 186.408 18.4407 187.098 18.64C188.018 18.8853 188.769 19.1383 189.352 19.399C189.95 19.6443 190.464 20.0123 190.893 20.503C191.322 20.9937 191.545 21.6453 191.56 22.458C191.56 23.1787 191.361 23.8227 190.962 24.39C190.563 24.9573 189.996 25.402 189.26 25.724C188.539 26.046 187.688 26.207 186.707 26.207ZM198.97 26.207C197.774 26.207 196.693 25.9387 195.727 25.402C194.761 24.85 194.002 24.0833 193.45 23.102C192.898 22.1053 192.622 20.9553 192.622 19.652C192.622 18.364 192.906 17.2217 193.473 16.225C194.04 15.2283 194.815 14.4617 195.796 13.925C196.777 13.3883 197.874 13.12 199.085 13.12C200.296 13.12 201.393 13.3883 202.374 13.925C203.355 14.4617 204.13 15.2283 204.697 16.225C205.264 17.2217 205.548 18.364 205.548 19.652C205.548 20.94 205.257 22.0823 204.674 23.079C204.091 24.0757 203.294 24.85 202.282 25.402C201.285 25.9387 200.181 26.207 198.97 26.207ZM198.97 23.93C199.645 23.93 200.273 23.769 200.856 23.447C201.454 23.125 201.937 22.642 202.305 21.998C202.673 21.354 202.857 20.572 202.857 19.652C202.857 18.732 202.681 17.9577 202.328 17.329C201.975 16.685 201.508 16.202 200.925 15.88C200.342 15.558 199.714 15.397 199.039 15.397C198.364 15.397 197.736 15.558 197.153 15.88C196.586 16.202 196.133 16.685 195.796 17.329C195.459 17.9577 195.29 18.732 195.29 19.652C195.29 21.0167 195.635 22.0747 196.325 22.826C197.03 23.562 197.912 23.93 198.97 23.93ZM213.614 13.12C214.611 13.12 215.5 13.327 216.282 13.741C217.079 14.155 217.7 14.7683 218.145 15.581C218.59 16.3937 218.812 17.375 218.812 18.525V26H216.213V18.916C216.213 17.7813 215.929 16.915 215.362 16.317C214.795 15.7037 214.02 15.397 213.039 15.397C212.058 15.397 211.276 15.7037 210.693 16.317C210.126 16.915 209.842 17.7813 209.842 18.916V26H207.22V13.327H209.842V14.776C210.271 14.2547 210.816 13.8483 211.475 13.557C212.15 13.2657 212.863 13.12 213.614 13.12ZM225.469 9.785C226.389 9.785 227.209 9.992 227.93 10.406C228.666 10.82 229.233 11.395 229.632 12.131C230.046 12.8517 230.253 13.672 230.253 14.592C230.253 15.512 230.046 16.34 229.632 17.076C229.233 17.7967 228.666 18.364 227.93 18.778C227.209 19.192 226.389 19.399 225.469 19.399C224.549 19.399 223.721 19.192 222.985 18.778C222.264 18.364 221.697 17.7967 221.283 17.076C220.869 16.34 220.662 15.512 220.662 14.592C220.662 13.672 220.869 12.8517 221.283 12.131C221.697 11.395 222.264 10.82 222.985 10.406C223.721 9.992 224.549 9.785 225.469 9.785ZM225.469 18.341C226.573 18.341 227.454 17.996 228.114 17.306C228.788 16.616 229.126 15.7113 229.126 14.592C229.126 13.4727 228.788 12.568 228.114 11.878C227.454 11.188 226.573 10.843 225.469 10.843C224.349 10.843 223.46 11.188 222.801 11.878C222.141 12.568 221.812 13.4727 221.812 14.592C221.812 15.7113 222.141 16.616 222.801 17.306C223.46 17.996 224.349 18.341 225.469 18.341ZM227.585 13.672C227.585 14.0093 227.5 14.3083 227.332 14.569C227.163 14.8143 226.933 14.9983 226.642 15.121L227.861 17.007H226.113L225.101 15.282H224.94V17.007H223.491V12.062H225.814C226.35 12.062 226.78 12.2153 227.102 12.522C227.424 12.8133 227.585 13.1967 227.585 13.672ZM224.94 14.109H225.722C225.844 14.109 225.944 14.0783 226.021 14.017C226.113 13.9403 226.159 13.8407 226.159 13.718C226.159 13.5953 226.113 13.5033 226.021 13.442C225.944 13.3807 225.844 13.35 225.722 13.35H224.94V14.109Z" fill="#F2EDE8"/>
</svg>
