<svg width="232" height="36" viewBox="0 0 232 36" fill="none" xmlns="http://www.w3.org/2000/svg">
<path d="M25.2117 21.7348C28.3425 20.9623 30.4539 18.6819 30.4539 15.7393C30.4539 11.8773 27.2139 9.22897 22.5905 9.22897H11.6243V19.9692H4.36856V1.02381H0V15.3064C0 19.9947 3.76089 23.7945 8.40108 23.7945H15.3544C14.3238 23.7945 13.3913 24.2161 12.7164 24.898C12.0416 25.5799 11.6243 26.522 11.6243 27.5633V34.9762H22.8089C27.6508 34.9762 31 32.1072 31 27.9877C31 24.7141 28.7429 22.2865 25.2117 21.7348ZM15.9565 13.1646H22.7725C24.7384 13.1646 26.1218 14.5255 26.1218 16.4382C26.1218 18.498 24.6292 19.9692 22.4449 19.9692H15.9565V13.1646ZM23.0274 31.0038H15.9565V23.7945H22.6269C24.9568 23.7945 26.5586 25.2658 26.5586 27.3624C26.5586 29.4589 25.2117 31.0038 23.0274 31.0038Z" fill="#1A1A1A"/>
<path d="M47.347 24.384H52.752V26.5H44.725V10.515H47.347V24.384ZM55.3587 12.148C54.8834 12.148 54.4847 11.987 54.1627 11.665C53.8407 11.343 53.6797 10.9443 53.6797 10.469C53.6797 9.99367 53.8407 9.595 54.1627 9.273C54.4847 8.951 54.8834 8.79 55.3587 8.79C55.8187 8.79 56.2097 8.951 56.5317 9.273C56.8537 9.595 57.0147 9.99367 57.0147 10.469C57.0147 10.9443 56.8537 11.343 56.5317 11.665C56.2097 11.987 55.8187 12.148 55.3587 12.148ZM56.6467 13.827V26.5H54.0247V13.827H56.6467ZM65.5632 13.62C66.5598 13.62 67.4492 13.827 68.2312 14.241C69.0285 14.655 69.6495 15.2683 70.0942 16.081C70.5388 16.8937 70.7612 17.875 70.7612 19.025V26.5H68.1622V19.416C68.1622 18.2813 67.8785 17.415 67.3112 16.817C66.7438 16.2037 65.9695 15.897 64.9882 15.897C64.0068 15.897 63.2248 16.2037 62.6422 16.817C62.0748 17.415 61.7912 18.2813 61.7912 19.416V26.5H59.1692V13.827H61.7912V15.276C62.2205 14.7547 62.7648 14.3483 63.4242 14.057C64.0988 13.7657 64.8118 13.62 65.5632 13.62ZM72.3117 20.106C72.3117 18.8333 72.5724 17.7063 73.0937 16.725C73.6304 15.7437 74.351 14.9847 75.2557 14.448C76.1757 13.896 77.1954 13.62 78.3147 13.62C79.1427 13.62 79.9554 13.804 80.7527 14.172C81.5654 14.5247 82.2094 15 82.6847 15.598V9.48H85.3297V26.5H82.6847V24.591C82.2554 25.2043 81.6574 25.7103 80.8907 26.109C80.1394 26.5077 79.273 26.707 78.2917 26.707C77.1877 26.707 76.1757 26.431 75.2557 25.879C74.351 25.3117 73.6304 24.5297 73.0937 23.533C72.5724 22.521 72.3117 21.3787 72.3117 20.106ZM82.6847 20.152C82.6847 19.278 82.5007 18.519 82.1327 17.875C81.78 17.231 81.3124 16.7403 80.7297 16.403C80.147 16.0657 79.5184 15.897 78.8437 15.897C78.169 15.897 77.5404 16.0657 76.9577 16.403C76.375 16.725 75.8997 17.208 75.5317 17.852C75.179 18.4807 75.0027 19.232 75.0027 20.106C75.0027 20.98 75.179 21.7467 75.5317 22.406C75.8997 23.0653 76.375 23.5713 76.9577 23.924C77.5557 24.2613 78.1844 24.43 78.8437 24.43C79.5184 24.43 80.147 24.2613 80.7297 23.924C81.3124 23.5867 81.78 23.096 82.1327 22.452C82.5007 21.7927 82.6847 21.026 82.6847 20.152ZM86.9796 20.106C86.9796 18.8333 87.2403 17.7063 87.7616 16.725C88.2983 15.7437 89.0189 14.9847 89.9236 14.448C90.8436 13.896 91.8556 13.62 92.9596 13.62C93.9563 13.62 94.8226 13.8193 95.5586 14.218C96.3099 14.6013 96.9079 15.0843 97.3526 15.667V13.827H99.9976V26.5H97.3526V24.614C96.9079 25.212 96.3023 25.7103 95.5356 26.109C94.7689 26.5077 93.8949 26.707 92.9136 26.707C91.8249 26.707 90.8283 26.431 89.9236 25.879C89.0189 25.3117 88.2983 24.5297 87.7616 23.533C87.2403 22.521 86.9796 21.3787 86.9796 20.106ZM97.3526 20.152C97.3526 19.278 97.1686 18.519 96.8006 17.875C96.4479 17.231 95.9803 16.7403 95.3976 16.403C94.8149 16.0657 94.1863 15.897 93.5116 15.897C92.8369 15.897 92.2083 16.0657 91.6256 16.403C91.0429 16.725 90.5676 17.208 90.1996 17.852C89.8469 18.4807 89.6706 19.232 89.6706 20.106C89.6706 20.98 89.8469 21.7467 90.1996 22.406C90.5676 23.0653 91.0429 23.5713 91.6256 23.924C92.2236 24.2613 92.8523 24.43 93.5116 24.43C94.1863 24.43 94.8149 24.2613 95.3976 23.924C95.9803 23.5867 96.4479 23.096 96.8006 22.452C97.1686 21.7927 97.3526 21.026 97.3526 20.152ZM116.132 18.289C116.991 18.4423 117.719 18.8947 118.317 19.646C118.915 20.3973 119.214 21.2483 119.214 22.199C119.214 23.0117 118.999 23.7477 118.57 24.407C118.156 25.051 117.55 25.5647 116.753 25.948C115.956 26.316 115.028 26.5 113.97 26.5H107.576V10.515H113.671C114.76 10.515 115.695 10.699 116.477 11.067C117.259 11.435 117.849 11.9333 118.248 12.562C118.647 13.1753 118.846 13.8653 118.846 14.632C118.846 15.552 118.601 16.3187 118.11 16.932C117.619 17.5453 116.96 17.9977 116.132 18.289ZM110.198 17.231H113.441C114.3 17.231 114.967 17.0393 115.442 16.656C115.933 16.2573 116.178 15.69 116.178 14.954C116.178 14.2333 115.933 13.6737 115.442 13.275C114.967 12.861 114.3 12.654 113.441 12.654H110.198V17.231ZM113.74 24.361C114.629 24.361 115.327 24.1463 115.833 23.717C116.339 23.2877 116.592 22.6897 116.592 21.923C116.592 21.141 116.324 20.52 115.787 20.06C115.25 19.6 114.537 19.37 113.648 19.37H110.198V24.361H113.74ZM132.758 19.853C132.758 20.3283 132.728 20.7577 132.666 21.141H122.983C123.06 22.153 123.436 22.9657 124.11 23.579C124.785 24.1923 125.613 24.499 126.594 24.499C128.005 24.499 129.002 23.9087 129.584 22.728H132.413C132.03 23.8933 131.332 24.8517 130.32 25.603C129.324 26.339 128.082 26.707 126.594 26.707C125.383 26.707 124.294 26.4387 123.328 25.902C122.378 25.35 121.626 24.5833 121.074 23.602C120.538 22.6053 120.269 21.4553 120.269 20.152C120.269 18.8487 120.53 17.7063 121.051 16.725C121.588 15.7283 122.332 14.9617 123.282 14.425C124.248 13.8883 125.352 13.62 126.594 13.62C127.79 13.62 128.856 13.8807 129.791 14.402C130.727 14.9233 131.455 15.6593 131.976 16.61C132.498 17.5453 132.758 18.6263 132.758 19.853ZM130.021 19.025C130.006 18.059 129.661 17.2847 128.986 16.702C128.312 16.1193 127.476 15.828 126.479 15.828C125.575 15.828 124.8 16.1193 124.156 16.702C123.512 17.2693 123.129 18.0437 123.006 19.025H130.021ZM140.813 13.62C141.809 13.62 142.699 13.827 143.481 14.241C144.278 14.655 144.899 15.2683 145.344 16.081C145.788 16.8937 146.011 17.875 146.011 19.025V26.5H143.412V19.416C143.412 18.2813 143.128 17.415 142.561 16.817C141.993 16.2037 141.219 15.897 140.238 15.897C139.256 15.897 138.474 16.2037 137.892 16.817C137.324 17.415 137.041 18.2813 137.041 19.416V26.5H134.419V13.827H137.041V15.276C137.47 14.7547 138.014 14.3483 138.674 14.057C139.348 13.7657 140.061 13.62 140.813 13.62ZM153.541 13.62C154.523 13.62 155.389 13.8193 156.14 14.218C156.907 14.6013 157.505 15.0843 157.934 15.667V13.827H160.579V26.707C160.579 27.8723 160.334 28.9073 159.843 29.812C159.353 30.732 158.64 31.4527 157.704 31.974C156.784 32.4953 155.68 32.756 154.392 32.756C152.675 32.756 151.249 32.3497 150.114 31.537C148.98 30.7397 148.336 29.651 148.182 28.271H150.781C150.981 28.9303 151.402 29.4593 152.046 29.858C152.706 30.272 153.488 30.479 154.392 30.479C155.45 30.479 156.301 30.157 156.945 29.513C157.605 28.869 157.934 27.9337 157.934 26.707V24.591C157.49 25.189 156.884 25.695 156.117 26.109C155.366 26.5077 154.507 26.707 153.541 26.707C152.437 26.707 151.425 26.431 150.505 25.879C149.601 25.3117 148.88 24.5297 148.343 23.533C147.822 22.521 147.561 21.3787 147.561 20.106C147.561 18.8333 147.822 17.7063 148.343 16.725C148.88 15.7437 149.601 14.9847 150.505 14.448C151.425 13.896 152.437 13.62 153.541 13.62ZM157.934 20.152C157.934 19.278 157.75 18.519 157.382 17.875C157.03 17.231 156.562 16.7403 155.979 16.403C155.397 16.0657 154.768 15.897 154.093 15.897C153.419 15.897 152.79 16.0657 152.207 16.403C151.625 16.725 151.149 17.208 150.781 17.852C150.429 18.4807 150.252 19.232 150.252 20.106C150.252 20.98 150.429 21.7467 150.781 22.406C151.149 23.0653 151.625 23.5713 152.207 23.924C152.805 24.2613 153.434 24.43 154.093 24.43C154.768 24.43 155.397 24.2613 155.979 23.924C156.562 23.5867 157.03 23.096 157.382 22.452C157.75 21.7927 157.934 21.026 157.934 20.152ZM166.162 15.966V22.981C166.162 23.4563 166.269 23.8013 166.484 24.016C166.714 24.2153 167.097 24.315 167.634 24.315H169.244V26.5H167.174C165.993 26.5 165.089 26.224 164.46 25.672C163.831 25.12 163.517 24.223 163.517 22.981V15.966H162.022V13.827H163.517V10.676H166.162V13.827H169.244V15.966H166.162ZM175.341 26.707C174.344 26.707 173.447 26.5307 172.65 26.178C171.868 25.81 171.247 25.3193 170.787 24.706C170.327 24.0773 170.081 23.3797 170.051 22.613H172.765C172.811 23.1497 173.064 23.602 173.524 23.97C173.999 24.3227 174.589 24.499 175.295 24.499C176.031 24.499 176.598 24.361 176.997 24.085C177.411 23.7937 177.618 23.4257 177.618 22.981C177.618 22.5057 177.388 22.153 176.928 21.923C176.483 21.693 175.77 21.44 174.789 21.164C173.838 20.9033 173.064 20.6503 172.466 20.405C171.868 20.1597 171.346 19.784 170.902 19.278C170.472 18.772 170.258 18.105 170.258 17.277C170.258 16.6023 170.457 15.989 170.856 15.437C171.254 14.8697 171.822 14.425 172.558 14.103C173.309 13.781 174.168 13.62 175.134 13.62C176.575 13.62 177.733 13.988 178.607 14.724C179.496 15.4447 179.971 16.4337 180.033 17.691H177.411C177.365 17.1237 177.135 16.6713 176.721 16.334C176.307 15.9967 175.747 15.828 175.042 15.828C174.352 15.828 173.823 15.9583 173.455 16.219C173.087 16.4797 172.903 16.8247 172.903 17.254C172.903 17.5913 173.025 17.875 173.271 18.105C173.516 18.335 173.815 18.519 174.168 18.657C174.52 18.7797 175.042 18.9407 175.732 19.14C176.652 19.3853 177.403 19.6383 177.986 19.899C178.584 20.1443 179.097 20.5123 179.527 21.003C179.956 21.4937 180.178 22.1453 180.194 22.958C180.194 23.6787 179.994 24.3227 179.596 24.89C179.197 25.4573 178.63 25.902 177.894 26.224C177.173 26.546 176.322 26.707 175.341 26.707ZM186.707 26.707C185.71 26.707 184.813 26.5307 184.016 26.178C183.234 25.81 182.613 25.3193 182.153 24.706C181.693 24.0773 181.448 23.3797 181.417 22.613H184.131C184.177 23.1497 184.43 23.602 184.89 23.97C185.365 24.3227 185.956 24.499 186.661 24.499C187.397 24.499 187.964 24.361 188.363 24.085C188.777 23.7937 188.984 23.4257 188.984 22.981C188.984 22.5057 188.754 22.153 188.294 21.923C187.849 21.693 187.136 21.44 186.155 21.164C185.204 20.9033 184.43 20.6503 183.832 20.405C183.234 20.1597 182.713 19.784 182.268 19.278C181.839 18.772 181.624 18.105 181.624 17.277C181.624 16.6023 181.823 15.989 182.222 15.437C182.621 14.8697 183.188 14.425 183.924 14.103C184.675 13.781 185.534 13.62 186.5 13.62C187.941 13.62 189.099 13.988 189.973 14.724C190.862 15.4447 191.338 16.4337 191.399 17.691H188.777C188.731 17.1237 188.501 16.6713 188.087 16.334C187.673 15.9967 187.113 15.828 186.408 15.828C185.718 15.828 185.189 15.9583 184.821 16.219C184.453 16.4797 184.269 16.8247 184.269 17.254C184.269 17.5913 184.392 17.875 184.637 18.105C184.882 18.335 185.181 18.519 185.534 18.657C185.887 18.7797 186.408 18.9407 187.098 19.14C188.018 19.3853 188.769 19.6383 189.352 19.899C189.95 20.1443 190.464 20.5123 190.893 21.003C191.322 21.4937 191.545 22.1453 191.56 22.958C191.56 23.6787 191.361 24.3227 190.962 24.89C190.563 25.4573 189.996 25.902 189.26 26.224C188.539 26.546 187.688 26.707 186.707 26.707ZM198.97 26.707C197.774 26.707 196.693 26.4387 195.727 25.902C194.761 25.35 194.002 24.5833 193.45 23.602C192.898 22.6053 192.622 21.4553 192.622 20.152C192.622 18.864 192.906 17.7217 193.473 16.725C194.04 15.7283 194.815 14.9617 195.796 14.425C196.777 13.8883 197.874 13.62 199.085 13.62C200.296 13.62 201.393 13.8883 202.374 14.425C203.355 14.9617 204.13 15.7283 204.697 16.725C205.264 17.7217 205.548 18.864 205.548 20.152C205.548 21.44 205.257 22.5823 204.674 23.579C204.091 24.5757 203.294 25.35 202.282 25.902C201.285 26.4387 200.181 26.707 198.97 26.707ZM198.97 24.43C199.645 24.43 200.273 24.269 200.856 23.947C201.454 23.625 201.937 23.142 202.305 22.498C202.673 21.854 202.857 21.072 202.857 20.152C202.857 19.232 202.681 18.4577 202.328 17.829C201.975 17.185 201.508 16.702 200.925 16.38C200.342 16.058 199.714 15.897 199.039 15.897C198.364 15.897 197.736 16.058 197.153 16.38C196.586 16.702 196.133 17.185 195.796 17.829C195.459 18.4577 195.29 19.232 195.29 20.152C195.29 21.5167 195.635 22.5747 196.325 23.326C197.03 24.062 197.912 24.43 198.97 24.43ZM213.614 13.62C214.611 13.62 215.5 13.827 216.282 14.241C217.079 14.655 217.7 15.2683 218.145 16.081C218.59 16.8937 218.812 17.875 218.812 19.025V26.5H216.213V19.416C216.213 18.2813 215.929 17.415 215.362 16.817C214.795 16.2037 214.02 15.897 213.039 15.897C212.058 15.897 211.276 16.2037 210.693 16.817C210.126 17.415 209.842 18.2813 209.842 19.416V26.5H207.22V13.827H209.842V15.276C210.271 14.7547 210.816 14.3483 211.475 14.057C212.15 13.7657 212.863 13.62 213.614 13.62ZM225.469 10.285C226.389 10.285 227.209 10.492 227.93 10.906C228.666 11.32 229.233 11.895 229.632 12.631C230.046 13.3517 230.253 14.172 230.253 15.092C230.253 16.012 230.046 16.84 229.632 17.576C229.233 18.2967 228.666 18.864 227.93 19.278C227.209 19.692 226.389 19.899 225.469 19.899C224.549 19.899 223.721 19.692 222.985 19.278C222.264 18.864 221.697 18.2967 221.283 17.576C220.869 16.84 220.662 16.012 220.662 15.092C220.662 14.172 220.869 13.3517 221.283 12.631C221.697 11.895 222.264 11.32 222.985 10.906C223.721 10.492 224.549 10.285 225.469 10.285ZM225.469 18.841C226.573 18.841 227.454 18.496 228.114 17.806C228.788 17.116 229.126 16.2113 229.126 15.092C229.126 13.9727 228.788 13.068 228.114 12.378C227.454 11.688 226.573 11.343 225.469 11.343C224.349 11.343 223.46 11.688 222.801 12.378C222.141 13.068 221.812 13.9727 221.812 15.092C221.812 16.2113 222.141 17.116 222.801 17.806C223.46 18.496 224.349 18.841 225.469 18.841ZM227.585 14.172C227.585 14.5093 227.5 14.8083 227.332 15.069C227.163 15.3143 226.933 15.4983 226.642 15.621L227.861 17.507H226.113L225.101 15.782H224.94V17.507H223.491V12.562H225.814C226.35 12.562 226.78 12.7153 227.102 13.022C227.424 13.3133 227.585 13.6967 227.585 14.172ZM224.94 14.609H225.722C225.844 14.609 225.944 14.5783 226.021 14.517C226.113 14.4403 226.159 14.3407 226.159 14.218C226.159 14.0953 226.113 14.0033 226.021 13.942C225.944 13.8807 225.844 13.85 225.722 13.85H224.94V14.609Z" fill="#1A1A1A"/>
</svg>
