<svg width="106" height="117" viewBox="0 0 106 117" fill="none" xmlns="http://www.w3.org/2000/svg">
<path d="M86.2076 71.2705C96.9129 68.6293 104.133 60.8316 104.133 50.77C104.133 37.5642 93.054 28.5087 77.245 28.5087H39.7476V65.2335H14.9377V0.452393H0V49.2898C0 65.3206 12.8598 78.3136 28.7263 78.3136H52.5021C48.9783 78.3136 45.7897 79.7551 43.482 82.0867C41.1744 84.4183 39.7476 87.6399 39.7476 91.2002V116.548H77.9919C94.5478 116.548 106 106.738 106 92.6514C106 81.4579 98.2822 73.157 86.2076 71.2705ZM54.5608 41.9661H77.8674C84.5893 41.9661 89.3196 46.6196 89.3196 53.1596C89.3196 60.2028 84.2159 65.2335 76.7471 65.2335H54.5608V41.9661ZM78.7388 102.965H54.5608V78.3136H77.3695C85.3362 78.3136 90.8134 83.3444 90.8134 90.5133C90.8134 97.6822 86.2076 102.965 78.7388 102.965Z" fill="#F2EDE8"/>
</svg>
